<?xml version="1.0" standalone="no"?>
<!DOCTYPE svg PUBLIC "-//W3C//DTD SVG 20010904//EN"
 "http://www.w3.org/TR/2001/REC-SVG-20010904/DTD/svg10.dtd">
<svg version="1.0" xmlns="http://www.w3.org/2000/svg"
 width="1024.000000pt" height="1024.000000pt" viewBox="0 0 1024.000000 1024.000000"
 preserveAspectRatio="xMidYMid meet">
<metadata>
Created by potrace 1.14, written by Peter Selinger 2001-2017
</metadata>
<g transform="translate(0.000000,1024.000000) scale(0.100000,-0.100000)"
fill="#000000" stroke="none">
<path d="M0 5120 l0 -5120 5120 0 5120 0 0 5120 0 5120 -5120 0 -5120 0 0
-5120z m7900 4648 c-103 -42 -126 -57 -173 -108 -28 -30 -48 -47 -44 -38 4 12
2 15 -9 11 -20 -7 -37 -41 -28 -55 4 -6 3 -8 -3 -5 -6 4 -13 -3 -17 -16 -8
-31 -7 -37 4 -37 6 0 10 10 10 23 0 17 2 19 10 7 10 -16 3 -133 -10 -165 -4
-11 -13 -45 -20 -75 -45 -194 -167 -276 -442 -293 -56 -4 -70 -2 -84 14 -16
17 -15 19 11 31 26 12 24 13 -41 24 -77 13 -168 50 -159 65 4 5 27 9 53 9 103
1 210 43 290 115 40 36 58 64 92 142 55 124 76 157 136 214 108 100 227 146
384 147 54 1 61 -1 40 -10z m-1065 -283 c33 -9 73 -25 90 -35 l30 -20 -90 0
c-104 0 -203 -14 -259 -36 -57 -22 -54 -11 6 20 48 25 50 27 18 20 -124 -24
-311 -141 -404 -253 -32 -39 -60 -71 -63 -71 -6 0 27 61 57 105 15 22 53 66
85 98 31 31 52 57 47 57 -5 0 -38 -22 -73 -49 -69 -54 -131 -132 -199 -253
-24 -43 -46 -76 -48 -73 -9 8 52 173 84 226 69 115 216 214 394 265 64 18 253
17 325 -1z m-2862 -129 c18 -7 40 -22 50 -34 18 -19 18 -20 0 -18 -15 1 -18
-7 -19 -41 -1 -53 -9 -73 -29 -73 -9 0 -13 -5 -10 -10 7 -12 -35 -30 -69 -30
-34 0 -68 42 -73 92 -4 37 -1 49 23 77 42 50 74 60 127 37z m4372 -100 c0 -52
-63 -62 -73 -12 -7 33 6 47 40 44 29 -3 33 -7 33 -32z m-325 -23 c8 -9 10 -13
4 -10 -7 4 -14 -7 -17 -29 -3 -20 -18 -51 -32 -69 -14 -19 -25 -38 -25 -44 0
-16 -18 -23 -40 -16 -41 13 -64 100 -39 146 24 46 114 59 149 22z m-2445 -50
c-11 -2 -27 -7 -35 -10 -8 -3 -26 -7 -39 -9 -13 -1 -34 -13 -47 -25 -13 -12
-24 -18 -24 -13 0 5 -4 4 -8 -1 -4 -6 -18 -16 -32 -23 -14 -7 -38 -33 -54 -58
-25 -39 -29 -57 -35 -162 -9 -131 -21 -164 -76 -210 -45 -37 -96 -52 -171 -52
-59 0 -208 -24 -252 -41 -13 -5 -21 -13 -18 -18 9 -15 -4 -39 -24 -44 -10 -2
-23 -13 -28 -24 -9 -16 -4 -26 24 -56 22 -23 37 -51 42 -79 5 -24 20 -64 35
-90 15 -27 24 -48 22 -48 -3 0 3 -8 13 -18 23 -23 43 -22 106 6 59 27 91 35
225 61 122 24 187 52 256 110 28 23 74 54 103 69 29 14 58 34 63 45 6 11 17
16 26 13 15 -6 43 15 43 32 0 5 6 15 13 21 10 8 14 7 14 -4 0 -8 -4 -12 -9 -9
-4 3 -8 1 -8 -5 0 -20 20 -21 37 -2 12 15 20 18 30 9 9 -8 13 -7 13 2 0 6 6
10 13 7 6 -2 28 7 47 20 29 21 27 17 -13 -22 -27 -27 -52 -43 -59 -39 -6 4 -8
3 -4 -4 8 -13 -44 -63 -57 -55 -6 3 -7 1 -3 -5 4 -6 -54 -64 -141 -139 -141
-123 -209 -183 -519 -464 -76 -70 -171 -153 -210 -185 -39 -33 -101 -85 -136
-116 -36 -32 -68 -58 -72 -58 -22 0 -684 308 -713 332 -8 6 -13 35 -13 73 0
59 -2 65 -31 90 -96 80 -210 108 -444 109 -190 0 -275 -16 -387 -76 -82 -44
-92 -58 -98 -140 l-5 -69 -135 -55 c-217 -88 -206 -85 -224 -65 -9 10 -14 20
-11 23 3 2 -6 15 -20 28 -42 40 -33 50 38 43 82 -7 107 10 100 67 -4 25 1 49
15 77 21 41 38 53 72 53 10 0 45 29 78 65 77 84 147 126 248 148 182 41 221
51 278 73 84 34 102 48 146 116 38 58 45 93 14 67 -27 -22 -14 7 30 66 54 74
75 94 151 140 125 75 296 99 472 67 l72 -14 -42 -44 c-33 -35 -48 -44 -75 -44
-28 0 -32 3 -23 13 24 30 -18 35 -97 12 -67 -20 -154 -99 -178 -160 -34 -91 8
-185 101 -220 33 -13 66 -16 137 -13 177 8 271 71 381 255 105 178 148 203
372 222 156 13 206 31 270 95 49 50 118 156 82 127 -15 -11 -17 -11 -17 2 0
22 93 129 143 165 24 16 67 38 97 47 30 9 60 18 65 20 6 2 35 3 65 3 30 0 46
-2 35 -5z m-3635 -140 c21 -74 131 -367 152 -407 6 -12 6 -21 0 -25 -5 -3 -9
-25 -7 -49 1 -23 -2 -45 -6 -48 -5 -3 -9 -16 -9 -30 0 -14 -4 -33 -10 -43 -9
-18 4 -210 35 -515 17 -161 23 -196 55 -330 12 -48 20 -90 18 -92 -6 -5 -342
-144 -350 -144 -4 0 8 26 26 58 38 65 70 161 81 242 3 30 9 63 11 73 12 39
-13 13 -36 -40 -78 -180 -274 -390 -430 -461 -72 -32 -330 -123 -330 -116 0 3
31 49 68 102 38 53 124 184 192 290 119 188 124 194 179 222 176 88 289 236
329 429 25 122 5 120 -66 -7 -39 -69 -131 -168 -190 -206 -49 -31 -144 -69
-227 -92 -111 -30 -200 -51 -203 -49 -2 2 23 41 56 86 121 172 326 527 424
737 66 142 173 396 189 450 7 23 15 42 19 42 4 0 17 -35 30 -77z m4752 42 c84
-55 104 -182 52 -326 -41 -115 -84 -170 -227 -293 -72 -61 -211 -183 -310
-271 -99 -88 -221 -195 -271 -238 -191 -164 -274 -238 -375 -331 -57 -52 -108
-93 -113 -90 -4 3 -8 1 -8 -4 0 -5 -11 -15 -25 -22 -13 -7 -22 -17 -19 -22 3
-4 -3 -8 -12 -8 -10 0 -15 -3 -11 -6 3 -4 -13 -22 -36 -41 -23 -19 -53 -44
-67 -56 -14 -12 -28 -21 -32 -19 -4 1 -58 -47 -119 -108 -62 -60 -116 -107
-121 -104 -4 3 -8 31 -8 62 0 45 -7 68 -30 110 -17 28 -31 52 -33 52 -1 0 -29
12 -62 26 -56 23 -57 25 -20 19 54 -8 131 -47 182 -89 l41 -36 45 35 c24 19
47 40 50 48 7 18 -24 103 -56 155 -31 48 -33 60 -12 68 17 7 21 59 5 69 -13 8
-37 -8 -100 -63 l-45 -40 36 -15 c24 -10 45 -30 63 -62 15 -25 26 -49 23 -51
-8 -9 -145 65 -155 83 -9 15 -14 13 -53 -17 -24 -19 -59 -47 -77 -62 -22 -19
-44 -28 -68 -28 l-35 0 20 29 c11 16 67 69 123 117 57 49 204 179 328 290 124
110 304 269 400 354 365 321 606 552 739 709 112 134 151 167 223 193 64 22
118 17 170 -17z m1988 -39 l35 -14 -40 -7 c-125 -20 -192 -45 -248 -95 -113
-99 -124 -253 -22 -296 71 -29 123 -16 248 62 98 61 177 84 286 84 51 -1 98
-7 116 -15 l30 -13 -37 -1 c-133 -3 -261 -116 -294 -260 -15 -63 -18 -161 -6
-161 5 0 24 22 43 50 58 85 172 157 289 181 67 14 213 7 259 -12 l34 -15 -49
-2 c-109 -4 -237 -63 -294 -134 -54 -67 -71 -121 -86 -283 -17 -175 -41 -241
-120 -325 -73 -78 -149 -109 -326 -135 -36 -6 -54 -25 -24 -25 22 0 28 -16 11
-30 -13 -11 -14 -10 -9 5 5 13 4 16 -5 11 -7 -5 -10 -25 -7 -59 3 -29 3 -43 0
-32 -17 65 -27 83 -50 94 -42 19 -91 13 -187 -25 l-92 -36 -86 11 c-47 6 -105
12 -130 12 l-44 2 40 7 c22 4 34 8 28 9 -7 0 -13 4 -13 9 1 9 81 63 130 87 19
10 42 23 50 30 8 7 40 26 70 42 102 55 294 187 357 247 135 126 189 317 137
489 -11 35 -57 47 -178 47 -108 0 -116 -1 -145 -25 -17 -15 -37 -46 -46 -75
-9 -28 -18 -50 -21 -50 -2 0 -1 27 2 59 8 70 1 104 -26 131 -18 18 -34 20
-130 20 -60 0 -120 -5 -134 -11 -24 -11 -30 -22 -80 -131 -35 -73 -135 -168
-252 -237 -75 -44 -766 -391 -779 -391 -3 0 5 18 16 40 12 22 25 72 29 112 22
199 18 270 -10 181 -34 -104 -147 -245 -252 -314 -82 -53 -167 -84 -327 -120
-78 -18 -141 -35 -141 -40 0 -4 68 -10 150 -14 83 -4 153 -11 155 -16 12 -18
-54 -49 -104 -49 -64 0 -187 -25 -253 -51 -161 -63 -235 -115 -264 -185 -10
-24 -29 -41 -64 -59 -47 -24 -52 -24 -80 -10 -42 22 -102 19 -134 -6 -32 -25
-56 -69 -56 -101 0 -19 -9 -27 -37 -37 -125 -44 -373 -146 -400 -164 -63 -42
-79 -128 -31 -161 23 -17 39 -11 -302 -106 -286 -79 -547 -168 -621 -211 -124
-72 -167 -128 -410 -534 -78 -129 -145 -235 -150 -235 -5 0 -43 9 -86 21 -106
29 -181 24 -224 -17 -47 -43 -58 -80 -71 -227 -6 -72 -16 -135 -21 -138 -5 -4
-28 -10 -51 -13 -54 -9 -607 -198 -866 -296 -249 -95 -362 -142 -516 -215 -64
-30 -120 -52 -123 -49 -9 8 -14 1644 -6 1732 4 48 11 72 18 69 6 -2 11 -14 11
-28 0 -22 11 -38 28 -39 4 0 8 15 10 33 3 29 6 -143 11 -663 1 -96 0 -202 -2
-235 -5 -65 8 -742 14 -762 3 -7 19 -13 36 -13 l32 0 -4 854 c-3 675 -1 858 9
867 10 10 12 6 12 -23 0 -38 14 -58 23 -34 3 9 15 12 31 9 16 -3 26 -1 26 7 0
6 6 10 13 7 9 -3 11 -167 8 -787 -2 -574 0 -781 8 -776 8 5 12 91 13 274 l3
267 2 -262 3 -263 35 23 35 22 0 118 c0 91 3 118 13 115 8 -3 13 -36 15 -107
1 -56 6 -99 11 -97 4 3 6 28 3 55 -5 59 5 141 19 141 5 0 9 -38 9 -85 0 -50 4
-85 10 -85 6 0 10 34 10 81 0 51 4 78 10 74 6 -3 10 -35 10 -70 l0 -64 45 16
44 17 3 55 c4 66 22 75 26 14 4 -54 22 -56 22 -3 0 22 5 40 10 40 6 0 10 -13
10 -30 0 -16 5 -30 10 -30 6 0 10 9 10 19 0 11 5 23 10 26 6 3 10 -3 10 -14 0
-12 4 -21 8 -21 14 0 305 80 387 106 118 38 266 97 259 103 -10 11 -454 -17
-694 -44 -69 -7 -155 -16 -192 -20 l-68 -7 0 41 c0 36 3 41 23 41 12 0 105 9
207 20 102 11 189 20 194 20 6 0 -2 12 -16 28 -14 15 -33 41 -41 58 -21 41
-34 159 -18 168 6 4 11 1 11 -7 0 -25 77 -134 99 -140 22 -5 31 18 9 25 -17 6
-36 81 -26 107 8 22 10 20 69 -36 33 -32 66 -58 72 -58 7 0 13 19 15 46 3 41
-1 51 -37 95 -40 47 -60 102 -46 124 3 5 11 8 16 5 5 -3 6 1 3 9 -3 9 -4 16
-1 16 7 0 129 -70 146 -83 7 -6 -3 19 -23 57 -26 48 -36 80 -36 112 0 53 21
60 40 14 7 -17 37 -54 67 -83 65 -62 71 -71 83 -137 11 -60 -2 -102 -50 -156
-64 -74 -23 -78 53 -5 72 67 71 66 77 371 l5 274 46 17 46 17 -10 -61 c-5 -34
-14 -65 -19 -68 -7 -4 -8 -31 -4 -70 3 -35 7 -161 8 -280 2 -213 2 -216 -23
-267 -14 -29 -23 -52 -18 -52 20 0 102 110 141 192 25 51 66 116 92 144 25 29
47 61 49 71 1 11 26 48 55 82 l52 63 1 401 c1 221 4 386 8 367 4 -23 13 -36
26 -40 20 -5 21 -12 20 -341 l0 -337 35 28 c45 36 105 99 219 229 91 104 297
305 531 520 69 63 162 151 207 195 45 44 85 78 87 75 3 -3 1 -22 -5 -44 -12
-42 -9 -239 4 -251 4 -5 12 -2 17 6 7 11 10 4 10 -25 0 -42 -25 -106 -61 -156
-12 -17 -19 -33 -15 -36 9 -9 113 58 190 123 107 91 263 261 291 317 35 72 33
108 -9 151 -19 19 -59 44 -88 55 l-53 22 43 -6 c63 -8 116 -39 143 -82 21 -33
24 -49 22 -120 -2 -92 -5 -99 -93 -235 -90 -139 -55 -128 124 39 80 75 118
103 205 146 58 30 156 71 218 91 106 35 114 40 147 84 19 26 43 54 53 62 47
41 348 309 433 386 113 103 246 221 321 286 68 58 79 68 171 151 42 37 87 77
99 88 13 11 46 41 73 67 30 29 50 42 53 35 7 -20 23 -15 23 6 0 25 16 36 27
17 4 -7 27 -15 51 -18 40 -3 56 5 30 15 -7 3 0 6 15 6 20 1 30 7 34 21 6 21
23 28 23 9 0 -7 10 1 22 17 36 46 66 74 80 74 7 0 36 22 63 49 28 26 82 70
120 96 39 26 63 45 53 42 -10 -4 -18 1 -21 13 -4 16 9 25 70 50 104 43 190 60
314 60 103 0 205 -22 233 -50 10 -10 -61 -16 -144 -13 -28 1 -31 0 -15 -7 16
-7 17 -9 3 -9 -9 -1 -24 -4 -34 -8 -10 -4 -15 -2 -11 3 3 6 -4 10 -16 11 -12
0 -16 -1 -9 -4 6 -3 12 -8 12 -13 0 -12 -60 -31 -73 -23 -5 3 -7 1 -3 -5 3 -5
-9 -20 -28 -31 -54 -34 -114 -105 -121 -145 -9 -46 -1 -77 30 -114 35 -41 84
-62 148 -62 95 0 177 51 222 139 12 25 42 67 65 93 34 39 53 51 108 68 99 29
123 48 151 116 74 185 126 239 271 281 55 16 181 10 230 -11z m-3006 -57 c15
-12 24 -25 19 -28 -4 -3 -14 -18 -22 -33 -7 -14 -32 -45 -55 -67 -48 -47 -67
-47 -92 1 -48 93 69 191 150 127z m-1850 -15 c18 -18 20 -47 6 -75 -12 -22
-68 -27 -88 -7 -18 18 -14 56 8 78 24 24 53 26 74 4z m-376 -113 c8 -4 14 -23
15 -41 2 -27 -3 -37 -25 -49 -24 -14 -28 -14 -47 3 -25 23 -26 44 -5 74 16 23
39 28 62 13z m3412 -133 c0 -40 -37 -120 -78 -171 -38 -48 -216 -214 -422
-395 -217 -191 -413 -365 -495 -442 -173 -160 -584 -514 -618 -531 -35 -18
183 193 358 346 88 77 191 170 230 206 38 36 147 132 240 214 94 82 193 169
220 194 28 25 135 120 239 211 103 91 205 187 226 215 41 53 80 134 80 166 0
10 5 19 10 19 6 0 10 -15 10 -32z m-4750 -132 c0 -3 -4 -8 -10 -11 -5 -3 -10
-1 -10 4 0 6 5 11 10 11 6 0 10 -2 10 -4z m4916 -64 c-15 -28 -46 -61 -46 -48
0 7 53 76 58 76 1 0 -4 -13 -12 -28z m1121 -2 l66 0 -6 -67 c-4 -38 -11 -85
-17 -105 -16 -55 -69 -128 -120 -166 -25 -18 -232 -130 -460 -248 -723 -375
-765 -397 -775 -404 -5 -5 -151 -81 -324 -169 l-314 -161 -54 20 c-73 27 -108
26 -140 -6 -25 -25 -30 -26 -92 -20 -36 4 -67 9 -70 11 -12 12 36 40 216 125
557 263 770 367 1133 554 441 227 549 287 628 348 71 55 158 161 178 218 19
50 50 84 71 75 8 -3 44 -5 80 -5z m-4977 -12 l51 -12 -103 -31 c-116 -36 -183
-67 -252 -120 -26 -19 -51 -33 -55 -30 -5 2 -14 -2 -21 -10 -7 -8 -21 -15 -31
-15 -10 0 -20 -4 -24 -10 -3 -5 -11 -7 -18 -5 -14 5 -38 -26 -79 -99 -24 -44
-28 -47 -28 -25 0 14 13 52 28 83 16 31 28 56 26 56 -2 0 -14 -16 -27 -36 -23
-32 -26 -34 -41 -19 -22 22 -21 25 20 78 77 98 196 165 342 191 98 18 148 19
212 4z m5430 -92 c0 -54 -29 -151 -63 -209 -45 -76 -103 -118 -312 -226 -203
-105 -543 -290 -625 -341 -25 -15 -160 -90 -300 -165 -140 -76 -311 -170 -380
-210 -421 -243 -442 -252 -549 -234 -31 5 -93 27 -139 49 -46 22 -95 40 -109
40 -22 0 -18 -6 34 -49 68 -56 92 -70 153 -87 65 -18 23 -17 -56 2 -79 18
-127 41 -171 83 -90 87 -13 137 107 71 128 -71 208 -94 273 -80 29 6 27 7 -24
14 -50 6 -179 57 -179 70 0 3 33 22 73 42 39 20 212 112 382 204 171 91 364
195 430 230 66 34 190 100 275 145 85 45 211 111 280 147 396 206 467 248 550
320 42 37 130 152 130 169 0 4 4 19 10 33 9 26 11 26 110 26 l100 0 0 -44z
m675 -118 c40 -18 34 -64 -20 -137 -51 -70 -85 -85 -117 -53 -25 25 -34 98
-16 132 17 31 74 70 104 70 13 0 35 -5 49 -12z m-6563 -50 c-7 -7 -12 -8 -12
-2 0 14 12 26 19 19 2 -3 -1 -11 -7 -17z m914 -263 c96 -18 162 -49 170 -80 8
-31 1 -91 -10 -85 -5 3 -10 22 -10 42 -1 21 -8 44 -16 53 -31 31 -132 58 -233
63 -103 5 -150 -6 -167 -38 -6 -12 -36 -24 -86 -35 -42 -9 -100 -25 -130 -35
-49 -17 -53 -17 -57 -2 -2 9 -2 2 0 -16 3 -23 -1 -34 -13 -39 -21 -8 -34 13
-34 58 0 55 48 87 175 114 83 18 315 18 411 0z m-192 -197 c28 -99 86 -350 92
-403 5 -39 3 -55 -7 -61 -8 -5 -77 -21 -154 -36 -183 -35 -1178 -238 -2000
-407 -104 -22 -191 -38 -193 -37 -8 9 -14 78 -8 100 8 34 35 47 426 206 179
73 366 149 415 170 50 20 286 116 525 213 239 96 458 185 485 197 55 25 347
108 382 109 18 1 24 -8 37 -51z m5770 -29 c-59 -17 -127 -71 -153 -123 -21
-41 -26 -67 -31 -180 -7 -145 -18 -180 -76 -256 -56 -73 -122 -107 -265 -136
-68 -14 -138 -32 -156 -39 -40 -17 -83 -3 -83 27 0 11 -7 18 -19 18 -12 0 -21
9 -25 25 -4 14 -11 25 -17 25 -6 0 -7 -5 -3 -12 5 -7 2 -9 -7 -6 -17 7 -51
-18 -68 -51 -17 -32 -41 -10 -41 38 0 78 74 142 185 160 33 5 65 10 70 12 6 1
18 -2 29 -6 52 -23 254 40 319 99 40 37 33 42 -10 8 -71 -55 -162 -92 -230
-92 -36 0 -43 3 -43 20 0 11 -4 20 -10 20 -5 0 -10 9 -10 20 0 14 11 22 43 30
129 33 173 56 224 114 22 25 46 64 53 87 44 133 150 209 290 208 56 -1 61 -2
34 -10z m-635 -205 c25 -31 28 -105 7 -144 l-14 -25 1 28 c1 15 5 27 10 27 4
0 7 18 7 40 0 43 -24 90 -45 90 -7 0 -15 7 -19 15 -8 23 27 2 53 -31z m686
-26 c-13 -24 -30 -78 -39 -120 -8 -42 -22 -93 -30 -111 -31 -75 -103 -131
-206 -162 -22 -7 -20 -3 17 38 26 28 65 93 101 169 50 104 67 131 116 176 32
28 59 52 61 52 2 0 -7 -19 -20 -42z m-887 -10 c-4 -29 -27 -40 -358 -172 -146
-58 -425 -169 -620 -247 -195 -78 -407 -160 -470 -184 -149 -55 -286 -112
-328 -136 -18 -10 -43 -17 -55 -14 -21 5 -570 54 -1052 95 -374 31 -347 26
-343 63 3 30 6 32 63 43 37 8 66 9 77 3 22 -12 55 -12 42 0 -5 5 -18 11 -29
13 -13 2 19 19 86 45 58 23 127 51 152 63 l46 22 27 -21 c15 -12 34 -21 42
-21 10 0 12 -3 6 -8 -14 -13 -246 -92 -268 -92 -12 0 -16 -3 -10 -9 5 -5 83
-14 174 -20 91 -7 277 -23 414 -37 230 -23 250 -23 267 -8 19 17 80 13 109 -7
11 -8 -4 -9 -50 -6 -40 4 -59 2 -49 -3 8 -5 89 -12 180 -16 163 -6 164 -6 224
21 33 14 220 89 415 166 195 77 499 197 675 267 379 150 570 219 608 221 24 1
28 -3 25 -21z m-368 -47 c49 -8 52 -6 -45 -44 -45 -17 -65 -18 -190 -12 -219
11 -238 17 -170 58 27 16 47 18 195 12 91 -3 185 -10 210 -14z m-3306 -143
c-120 -58 -173 -191 -119 -298 14 -27 57 -70 90 -89 17 -11 14 -12 -19 -7
-113 15 -182 173 -127 291 36 78 127 139 188 127 25 -5 25 -5 -13 -24z m2948
7 c10 -4 16 -11 13 -15 -10 -16 -130 -48 -170 -45 -152 11 -204 18 -199 26 3
5 35 10 72 11 51 1 56 2 22 5 -63 5 -81 13 -55 24 22 10 289 5 317 -6z m388
-130 c0 -78 -2 -85 -20 -85 -18 0 -20 7 -20 79 0 75 4 87 33 90 4 1 7 -37 7
-84z m-3175 34 c19 -19 19 -21 0 -55 -20 -37 -88 -104 -105 -104 -19 0 -50 40
-50 64 0 29 33 72 74 97 40 24 58 24 81 -2z m3083 -41 c-2 -48 -7 -64 -19 -66
-25 -5 -35 85 -12 110 27 30 34 21 31 -44z m-2161 7 c37 -20 96 -41 130 -47
60 -11 88 -33 58 -44 -19 -8 -145 30 -207 62 -26 13 -58 23 -70 23 -17 -1 -18
-3 -5 -6 9 -2 17 -10 17 -18 0 -15 48 -53 105 -83 37 -20 38 -21 14 -22 -30 0
-132 50 -166 82 -25 23 -30 57 -11 76 21 21 65 13 135 -23z m-1107 16 c0 -6
-4 -13 -10 -16 -5 -3 -10 1 -10 9 0 9 5 16 10 16 6 0 10 -4 10 -9z m2623 3
c43 -4 77 -11 77 -16 0 -4 -20 -13 -45 -20 -25 -7 -45 -18 -45 -25 0 -14 -38
-15 -180 -5 l-85 7 55 32 c60 35 85 38 223 27z m-3753 -102 c0 -6 -372 -80
-775 -152 -82 -15 -328 -62 -545 -104 -217 -42 -442 -86 -500 -97 -58 -10
-147 -29 -197 -41 -86 -20 -119 -20 -97 1 9 9 353 80 604 125 74 13 254 47
400 76 146 28 339 65 430 81 91 16 203 37 250 45 130 25 403 72 418 73 6 1 12
-2 12 -7z m4624 -17 c12 -16 25 -23 36 -20 9 3 25 -4 36 -15 10 -11 28 -29 39
-40 11 -12 27 -19 36 -17 9 3 48 -10 85 -29 79 -38 77 -39 -48 -19 -51 9 -107
18 -124 20 -27 5 -33 11 -44 50 -7 25 -24 56 -38 70 -16 16 -20 25 -11 25 8 0
23 -11 33 -25z m-194 -28 c0 -7 -40 -110 -44 -115 -11 -10 -18 29 -12 60 7 36
23 58 42 58 8 0 14 -1 14 -3z m-991 -27 c24 -13 -78 -40 -148 -40 l-66 0 45
30 c40 27 50 29 100 23 30 -3 61 -9 69 -13z m809 4 c46 -6 52 -9 52 -30 0 -21
-4 -24 -37 -23 -84 1 -262 26 -277 39 -13 10 -22 10 -42 1 -42 -19 -42 -11 1
10 35 17 54 19 145 14 58 -3 129 -8 158 -11z m-1851 0 c-3 -3 -12 -4 -19 -1
-8 3 -5 6 6 6 11 1 17 -2 13 -5z m2137 -7 c34 -25 30 -147 -5 -147 -5 0 -21
11 -34 25 -22 21 -25 22 -25 5 0 -29 -11 -50 -26 -50 -17 0 -17 19 0 95 18 77
49 102 90 72z m-2231 -46 c17 -6 16 -8 -10 -20 -46 -21 -114 -40 -129 -35 -49
15 -49 16 6 39 55 24 100 30 133 16z m2744 3 c-3 -3 -12 -4 -19 -1 -8 3 -5 6
6 6 11 1 17 -2 13 -5z m213 -2 c0 -5 -7 -17 -16 -28 -15 -18 -15 -18 -5 3 10
19 8 22 -17 26 -25 4 -25 4 6 6 17 0 32 -3 32 -7z m159 -15 c-2 -1 -13 -9 -24
-17 -19 -14 -19 -14 -6 3 7 9 18 17 24 17 6 0 8 -1 6 -3z m222 -7 c23 0 49
-42 49 -79 0 -31 -6 -44 -26 -60 -57 -45 -134 -15 -134 52 0 53 49 104 88 91
8 -2 18 -4 23 -4z m-3091 -18 l23 -19 -54 -11 c-30 -6 -61 -13 -69 -16 -9 -4
-24 0 -35 8 -19 14 -18 16 25 35 57 25 82 26 110 3z m670 3 c0 -18 -70 -45
-115 -44 -40 0 -46 2 -27 9 12 5 22 14 22 19 0 5 8 12 18 14 25 7 102 8 102 2z
m1775 -35 c13 -6 15 -9 5 -9 -8 0 -22 4 -30 9 -18 12 -2 12 25 0z m-1495 -45
c0 -22 -37 -55 -60 -55 -34 0 -25 37 10 45 16 4 32 11 35 16 9 13 15 11 15 -6z
m1320 -12 c85 -17 161 -47 184 -72 16 -17 11 -18 -76 -24 -216 -14 -875 -177
-1283 -318 -198 -68 -384 -142 -439 -174 -43 -25 -104 -85 -138 -135 -9 -14
-17 -20 -17 -14 -2 24 85 126 134 159 138 91 827 323 1223 410 64 14 149 34
187 45 39 10 111 26 160 34 50 9 106 19 125 23 29 5 10 11 -109 34 -79 15
-145 30 -148 33 -3 2 -2 10 2 16 8 13 76 7 195 -17z m290 -25 c0 -13 -5 -9
-31 19 l-24 26 27 -19 c15 -10 28 -22 28 -26z m-5540 -13 c0 -19 4 -35 10 -35
5 0 11 -54 13 -127 l3 -128 2 133 c1 76 6 132 12 132 12 0 19 -867 7 -893 -5
-10 -15 -16 -23 -13 -7 3 -13 2 -12 -2 3 -15 -15 -62 -23 -62 -5 0 -9 220 -9
515 0 337 3 515 10 515 6 0 10 -16 10 -35z m319 -282 c-1 -164 -5 -280 -9
-258 l-6 40 -6 -35 c-2 -19 -6 94 -6 251 -1 157 1 289 5 292 3 4 10 7 15 7 4
0 7 -134 7 -297z m3466 255 c-7 -17 -35 -28 -72 -28 -36 0 -27 19 20 39 44 19
62 15 52 -11z m-3977 -50 l33 3 -3 -93 c-3 -79 -6 -93 -20 -96 -16 -3 -18 5
-18 55 0 32 -5 65 -10 73 -7 10 -10 -9 -10 -62 0 -45 -4 -78 -10 -78 -6 0 -9
52 -9 138 1 75 5 119 8 97 6 -38 7 -40 39 -37z m282 -373 c1 -285 -2 -431 -9
-433 -7 -2 -10 138 -11 425 0 375 3 454 16 440 2 -2 4 -196 4 -432z m50 282
c0 -245 -12 -517 -23 -517 -6 0 -7 62 -3 173 3 94 7 245 7 335 0 96 4 162 9
162 6 0 10 -63 10 -153z m1990 92 c0 -50 -15 -79 -41 -79 -30 0 -42 43 -24 85
11 27 20 35 39 35 24 0 26 -4 26 -41z m96 24 c-4 -9 -1 -20 6 -25 10 -6 8 -8
-4 -8 -13 0 -18 8 -18 25 0 14 5 25 11 25 6 0 8 -7 5 -17z m54 -3 c0 -11 -2
-20 -4 -20 -2 0 -6 9 -9 20 -3 11 -1 20 4 20 5 0 9 -9 9 -20z m-2666 -36 c3
-26 7 -81 7 -123 2 -90 6 -73 18 69 l8 105 2 -90 c1 -49 4 -106 7 -126 l6 -36
-47 -8 c-26 -3 -54 -9 -61 -12 -11 -4 -14 14 -13 98 1 57 5 118 9 134 l8 30 1
-27 c2 -40 31 -38 31 2 0 47 17 35 24 -16z m264 -71 c-4 -127 -22 -125 -26 2
-2 81 0 95 13 95 13 0 15 -14 13 -97z m5879 75 c-3 -8 -6 -5 -6 6 -1 11 2 17
5 13 3 -3 4 -12 1 -19z m-1990 -21 c-3 -18 -12 -51 -22 -72 -12 -31 -18 -36
-25 -25 -14 22 -1 81 23 108 27 29 31 28 24 -11z m-5571 -41 c-7 -75 -6 -76
107 -76 81 0 83 -6 31 -87 -60 -94 -158 -179 -269 -235 -45 -23 -175 -67 -250
-84 l-29 -7 37 49 c45 59 260 377 305 452 22 37 38 52 53 52 21 0 21 -3 15
-64z m1151 1 c15 -78 7 -197 -14 -197 -11 0 -13 26 -12 130 0 72 4 130 8 130
3 0 12 -29 18 -63z m354 -57 l-8 -85 -2 95 c-1 59 2 91 9 84 5 -5 6 -42 1 -94z
m4203 69 c13 -65 7 -108 -16 -120 -19 -10 -25 -8 -45 17 l-23 29 -6 -33 c-10
-52 -24 -48 -24 8 0 31 8 66 20 90 18 35 25 40 54 40 30 0 34 -4 40 -31z
m1620 -21 c18 -29 43 -75 55 -103 59 -133 231 -602 231 -631 0 -28 -29 -13
-35 19 -11 48 -190 522 -225 594 -17 34 -46 75 -66 92 -29 26 -43 31 -86 31
-57 0 -398 -66 -412 -80 -5 -5 17 -127 53 -287 66 -304 114 -557 109 -582 -9
-38 -33 45 -74 244 -24 115 -61 289 -82 385 -22 96 -43 189 -46 207 l-7 31
-172 -44 c-267 -69 -518 -146 -524 -160 -3 -7 11 -104 30 -216 19 -112 40
-241 46 -288 7 -47 26 -161 42 -254 21 -114 27 -172 20 -179 -7 -7 -12 -2 -15
14 -30 126 -59 284 -80 428 -32 218 -87 491 -99 491 -38 0 -477 -175 -535
-213 -67 -45 -106 -111 -148 -246 -19 -64 -58 -190 -86 -281 -27 -91 -72 -232
-99 -315 -27 -82 -58 -190 -69 -240 -12 -49 -25 -94 -30 -99 -13 -13 -13 -18
10 114 12 62 54 217 94 344 41 127 93 294 116 371 78 263 131 351 241 402 115
54 403 157 609 218 403 119 1052 275 1183 284 11 1 30 -19 51 -51z m-6399 -12
c5 -29 9 -36 15 -25 5 8 20 14 32 15 13 0 38 4 57 8 l34 8 -6 -62 c-4 -35 -7
-78 -7 -96 0 -30 -3 -33 -42 -40 -63 -12 -62 -12 -69 31 l-6 40 -2 -47 c-1
-35 -5 -48 -16 -48 -13 0 -15 21 -15 128 0 71 3 132 7 136 8 8 9 7 18 -48z
m2855 12 c0 -19 9 -41 22 -55 19 -20 31 -23 92 -23 39 0 130 7 201 15 72 8
133 15 138 15 4 0 7 -9 7 -20 0 -16 7 -20 38 -21 29 -1 23 -4 -28 -12 -58 -9
-62 -11 -35 -18 17 -4 100 -12 185 -19 186 -13 454 -46 530 -64 l55 -14 -55
-1 c-30 0 -86 4 -123 9 -189 28 -585 62 -767 67 -218 6 -440 -3 -440 -18 0 -5
73 -9 164 -9 179 0 294 -9 275 -21 -7 -4 8 -10 37 -14 27 -3 65 -10 84 -15
l35 -10 -40 5 c-104 14 -488 17 -680 6 -400 -23 -535 -49 -642 -122 -51 -35
-52 -49 -2 -20 108 62 431 101 834 101 320 0 831 -39 1100 -85 170 -29 261
-57 309 -97 85 -70 89 -139 22 -373 -122 -421 -149 -482 -232 -535 -83 -52
-168 -60 -412 -36 -117 11 -135 15 -154 36 l-22 23 50 -6 c251 -33 423 -33
485 -2 42 21 96 71 114 106 19 36 160 501 175 575 31 160 -45 226 -310 268
-350 56 -692 81 -1110 81 -384 0 -490 -7 -691 -45 -170 -32 -209 -65 -344
-296 -48 -82 -132 -222 -186 -312 l-98 -163 172 7 c140 5 185 3 240 -10 127
-30 345 -158 308 -180 -5 -3 -33 10 -63 30 -72 50 -160 90 -238 110 -53 13
-97 16 -236 12 -174 -6 -229 -17 -229 -48 0 -7 14 -22 32 -32 26 -16 79 -22
313 -37 l282 -18 26 -28 27 -27 -75 6 c-41 3 -159 9 -261 12 -165 6 -190 4
-223 -11 -32 -15 -64 -51 -54 -59 2 -2 134 -6 295 -10 301 -6 310 -5 325 32 2
6 34 5 76 0 72 -10 75 -9 101 16 20 19 38 26 66 26 l39 0 -32 -28 c-31 -28
-59 -44 -97 -57 -15 -5 -16 -8 -6 -14 26 -16 -7 -17 -189 -5 -268 18 -621 18
-646 0 -10 -8 -17 -17 -14 -19 3 -3 118 -8 255 -11 262 -7 319 -12 310 -25 -2
-5 -22 -11 -44 -15 -43 -7 -279 -77 -326 -97 -16 -7 -33 -13 -37 -13 -3 -1
-10 -4 -14 -8 -4 -5 -20 -8 -36 -8 -16 0 -27 -3 -25 -7 3 -5 -7 -9 -21 -10
-15 -1 -42 -8 -60 -16 -29 -12 -31 -15 -17 -27 14 -11 16 -11 13 1 -2 9 4 13
18 11 11 -1 56 8 100 22 272 85 544 156 602 157 77 2 88 -6 31 -21 -163 -41
-961 -311 -1164 -392 -82 -34 -179 -72 -215 -85 -36 -13 -146 -59 -245 -101
-132 -57 -173 -78 -153 -80 14 -2 73 15 130 37 763 296 1276 474 1568 545 160
39 181 46 175 56 -4 6 2 10 11 10 22 0 8 16 -21 24 -11 3 5 3 35 1 30 -3 75
-5 100 -5 33 0 41 -3 30 -10 -8 -5 -27 -10 -42 -10 -15 0 -51 -11 -80 -24 -29
-13 -107 -40 -173 -60 -337 -103 -602 -198 -1299 -467 l-269 -104 124 -7 c68
-4 239 -17 379 -29 145 -12 289 -19 335 -16 74 4 78 4 50 -9 -131 -60 -182
-85 -197 -96 -13 -10 -53 -8 -200 10 -101 12 -295 33 -433 47 -673 67 -1005
89 -1005 67 0 -4 66 -16 148 -25 81 -9 174 -21 207 -26 33 -6 206 -24 385 -41
289 -27 684 -69 810 -86 43 -6 57 0 235 90 217 109 534 239 775 316 191 61
508 150 530 149 8 0 11 -2 5 -4 -5 -2 -152 -49 -325 -105 -441 -143 -772 -277
-1018 -410 -73 -39 -130 -76 -127 -81 7 -11 -3 -11 -85 1 -187 26 -650 75
-1330 140 -113 11 -224 22 -247 25 l-43 6 16 37 c18 45 56 85 154 165 200 162
491 322 860 473 210 86 198 90 -20 7 -218 -83 -497 -191 -570 -220 -128 -51
-390 -184 -400 -203 -6 -10 -33 -31 -60 -46 -54 -30 -60 -47 -16 -52 19 -2 26
-8 24 -20 -3 -15 -24 -18 -160 -22 -126 -4 -161 -8 -173 -21 -15 -15 -5 -17
117 -23 73 -4 136 -10 140 -14 4 -4 5 -17 2 -29 -6 -23 -7 -23 -178 -17 -210
7 -206 -8 11 -34 142 -17 148 -19 151 -41 3 -22 1 -23 -30 -18 -18 3 -80 11
-138 17 -203 21 -193 19 -185 43 4 12 7 31 6 42 -1 59 146 151 512 322 429
199 967 403 1462 553 94 28 195 63 227 77 54 24 58 28 124 141 37 65 102 176
144 247 42 72 116 198 165 280 162 275 219 346 322 398 117 60 748 254 831
256 30 1 32 -1 32 -31z m-2570 -47 c0 -81 -10 -131 -26 -131 -11 0 -14 21 -14
93 0 98 3 109 26 100 10 -4 14 -22 14 -62z m40 57 c0 -10 3 -9 9 1 11 18 17 5
20 -46 3 -50 -16 -59 -22 -10 -2 17 -5 -3 -5 -45 -1 -44 -6 -78 -12 -78 -5 0
-10 15 -10 34 0 18 -3 61 -6 95 -6 52 -5 61 10 61 9 0 16 -6 16 -12z m6605 0
c-11 -6 -36 -26 -56 -45 -23 -22 -39 -31 -43 -24 -4 6 -3 11 3 11 5 0 13 9 16
21 4 11 21 27 38 34 39 17 71 20 42 3z m-3426 -27 c37 -10 -212 -1 -261 9 -29
6 3 7 96 3 77 -3 151 -9 165 -12z m-3709 -21 c0 -20 5 -30 15 -30 8 0 15 7 15
16 0 14 3 14 15 4 11 -9 16 -36 17 -99 l2 -86 3 85 c4 80 15 116 34 104 5 -3
9 -47 9 -98 l0 -94 -47 -6 c-27 -4 -56 -9 -65 -12 -17 -5 -18 5 -18 120 0 77
4 126 10 126 6 0 10 -13 10 -30z m7045 20 c-3 -5 -12 -10 -18 -10 -7 0 -6 4 3
10 19 12 23 12 15 0z m-3408 -16 c-3 -3 -12 -4 -19 -1 -8 3 -5 6 6 6 11 1 17
-2 13 -5z m-3730 -116 c-2 -13 -4 -3 -4 22 0 25 2 35 4 23 2 -13 2 -33 0 -45z
m640 30 c-3 -7 -5 -2 -5 12 0 14 2 19 5 13 2 -7 2 -19 0 -25z m6787 -37 c3 -5
-8 -14 -24 -21 -35 -14 -78 -61 -115 -124 -14 -24 -33 -47 -41 -50 -9 -3 -12
-11 -8 -18 5 -8 2 -9 -10 -5 -10 4 -15 3 -11 -3 5 -9 -63 -50 -84 -50 -23 0
20 128 58 177 32 39 71 66 125 85 56 19 102 23 110 9z m-6334 -35 c0 -19 -3
-37 -7 -39 -5 -3 -89 -17 -188 -31 -99 -15 -262 -40 -361 -57 -241 -39 -443
-67 -449 -61 -6 6 -7 72 -1 72 3 0 544 83 781 119 72 12 141 22 155 24 66 11
70 9 70 -27z m5547 -26 c7 -25 20 -59 28 -77 8 -17 15 -36 15 -41 0 -6 -57
-29 -127 -53 -71 -23 -159 -55 -197 -70 -39 -16 -71 -27 -71 -26 -1 1 -11 46
-22 100 -19 91 -20 99 -4 105 64 27 330 110 346 109 14 -2 23 -15 32 -47z
m-2767 -14 c36 -8 58 -15 50 -16 -8 -2 1 -6 20 -10 21 -5 6 -6 -40 -3 -41 3
-77 9 -80 13 -3 4 -14 7 -25 7 -11 0 -38 1 -60 2 -32 2 -36 4 -20 11 29 12 81
11 155 -4z m1000 0 c0 -6 -170 -76 -184 -76 -7 0 -13 7 -13 15 0 9 21 22 51
34 28 10 58 21 66 24 18 6 80 9 80 3z m-635 -56 c147 -24 195 -40 253 -83 48
-36 18 -40 -48 -6 -30 16 -107 42 -170 58 -63 16 -126 34 -140 40 -23 10 -22
10 10 6 19 -3 62 -9 95 -15z m1835 -117 c6 -32 16 -73 20 -92 5 -19 8 -36 7
-37 -8 -8 -535 -194 -549 -194 -11 0 -20 10 -24 28 -3 15 -7 33 -9 39 -3 7 15
25 38 41 38 26 93 57 407 225 47 25 88 46 92 46 4 1 12 -25 18 -56z m-2775 31
c143 -9 296 -18 340 -19 44 -2 143 -13 220 -24 95 -14 117 -19 70 -16 -46 2
-61 1 -45 -5 24 -8 24 -8 3 -9 -15 -1 -23 -7 -23 -18 -1 -20 -44 -73 -60 -73
-5 0 -10 -7 -10 -15 0 -8 -4 -15 -10 -15 -5 0 -10 -9 -10 -20 0 -11 -7 -20
-15 -20 -8 0 -15 -9 -15 -20 0 -11 -7 -20 -15 -20 -8 0 -15 -9 -15 -20 0 -13
-7 -20 -20 -20 -13 0 -20 -7 -20 -19 0 -14 -6 -17 -25 -13 -15 2 -25 0 -25 -7
0 -6 -5 -11 -11 -11 -7 0 -27 -17 -45 -37 l-34 -38 4 38 c2 21 13 52 25 68 12
16 17 29 12 29 -5 0 -24 -26 -41 -57 -104 -186 -232 -393 -243 -393 -7 0 -25
7 -41 15 -16 9 -57 18 -90 20 -34 3 -77 10 -96 16 -43 13 -396 24 -475 14 -65
-8 -95 -31 -95 -74 0 -26 -4 -29 -37 -34 -28 -3 -52 3 -95 24 -119 59 -189 74
-355 74 -97 0 -153 4 -153 10 0 11 33 69 207 362 62 106 125 205 139 222 52
62 173 88 482 106 295 17 320 17 617 -1z m3424 -72 c7 -24 11 -46 9 -47 -8 -8
-385 -135 -400 -135 -10 0 -18 6 -18 14 0 7 -3 27 -6 45 -6 29 -4 32 42 52 88
39 349 127 355 121 3 -4 11 -27 18 -50z m-2189 15 c0 -7 9 -23 20 -35 12 -12
17 -22 13 -22 -4 0 -1 -5 7 -10 12 -7 15 -29 14 -97 0 -72 -8 -115 -42 -233
-61 -213 -91 -313 -98 -319 -8 -8 3 83 15 129 5 19 23 87 41 150 68 255 74
332 31 406 -24 40 -25 44 -11 44 6 0 10 -6 10 -13z m-4961 -306 c-40 -80 -176
-220 -304 -311 -200 -142 -304 -232 -357 -308 -29 -42 -30 -43 -50 -25 -45 41
-61 91 -56 178 10 157 100 286 338 484 166 138 267 211 283 205 27 -10 98 17
135 51 l37 34 3 -122 c3 -119 2 -123 -29 -186z m569 290 c12 -7 12 -30 3 -129
-13 -140 -14 -434 -1 -507 4 -27 7 -51 6 -52 -1 -2 -17 -6 -34 -9 l-32 -6 0
356 0 356 23 0 c12 0 28 -4 35 -9z m3925 2 c-7 -2 -21 -2 -30 0 -10 3 -4 5 12
5 17 0 24 -2 18 -5z m77 0 c0 -5 -22 -44 -48 -88 -27 -44 -81 -140 -121 -212
-63 -115 -76 -133 -98 -133 -32 0 -30 7 63 175 41 75 71 141 68 147 -4 7 -2 8
4 4 6 -4 16 4 23 16 24 46 73 98 91 98 10 0 18 -3 18 -7z m140 -29 c2 -3 -1
-13 -7 -24 -25 -40 -172 -308 -199 -362 -25 -52 -30 -57 -53 -51 -14 3 -30 9
-34 13 -8 7 135 280 206 393 26 43 33 48 56 42 14 -4 28 -9 31 -11z m3151 -13
c56 -56 29 -153 -47 -167 -111 -21 -171 120 -76 179 43 26 89 22 123 -12z
m-6134 -103 c-3 -8 -6 -5 -6 6 -1 11 2 17 5 13 3 -3 4 -12 1 -19z m4822 -42
c15 -61 14 -73 -6 -79 -10 -3 -132 -44 -270 -91 -139 -47 -259 -86 -266 -86
-8 0 -17 12 -20 28 -3 15 -8 34 -12 43 -4 11 13 22 72 47 94 38 475 181 484
182 4 0 12 -20 18 -44z m-791 -97 c21 -88 27 -81 -135 -144 -82 -32 -174 -67
-205 -80 l-57 -22 14 26 c15 29 104 117 150 148 41 28 208 123 215 123 4 0 12
-23 18 -51z m1477 3 c-19 -17 -343 -134 -357 -130 -6 2 36 21 93 43 259 97
284 105 264 87z m396 -71 c55 -55 52 -77 -6 -47 -17 9 -34 11 -44 6 -19 -9
-148 -58 -279 -106 -51 -18 -101 -38 -112 -44 -42 -22 -40 3 2 31 40 27 265
108 353 127 33 8 37 11 21 17 -12 5 -42 2 -75 -7 -72 -20 -484 -183 -532 -210
l-38 -21 -33 21 c-23 15 -28 22 -18 26 20 7 328 122 410 154 146 55 257 91
284 91 20 1 40 -10 67 -38z m-791 -75 c0 -2 -7 -7 -16 -10 -8 -3 -12 -2 -9 4
6 10 25 14 25 6z m-1056 -37 c3 -17 6 -38 6 -46 0 -13 -55 -42 -110 -57 l-25
-7 25 21 c19 15 20 19 6 13 -13 -4 -17 -3 -12 5 4 7 2 12 -6 12 -7 1 -2 8 12
16 l25 15 -25 -5 c-53 -12 -105 -18 -99 -12 7 8 170 74 185 75 6 1 14 -13 18
-30z m890 -29 c-6 -6 -42 -22 -80 -37 -126 -47 -557 -192 -548 -184 5 5 140
55 299 111 160 57 297 107 305 111 21 12 36 11 24 -1z m1186 -42 c30 -13 69
-36 85 -51 33 -27 73 -92 64 -102 -4 -3 -35 1 -70 10 -71 16 -130 20 -94 5 22
-9 26 -7 -66 -34 -88 -25 -139 -71 -189 -168 -56 -109 -95 -157 -144 -179 -74
-34 -135 -21 -65 14 22 11 46 32 54 48 17 32 20 99 5 99 -5 0 -10 7 -10 15 0
8 -4 15 -10 15 -5 0 -10 9 -10 19 0 11 -8 22 -17 26 -10 3 -27 12 -37 20 -19
14 -19 15 0 37 10 13 2 7 -19 -12 -39 -36 -89 -129 -102 -187 -10 -50 -25 -50
-25 -1 0 215 178 406 420 452 63 12 176 -1 230 -26z m-5889 -19 c82 -27 88
-33 62 -61 -11 -13 -23 -35 -27 -50 -9 -39 -33 -58 -72 -58 -34 0 -73 27 -75
53 -1 6 -5 -6 -8 -28 -9 -53 -5 -63 33 -74 17 -5 23 -10 13 -10 -38 -2 -76 28
-83 64 -9 51 0 150 15 169 18 22 65 20 142 -5z m2381 -10 c67 -22 163 -81 172
-104 3 -10 -8 -6 -32 10 -72 47 -170 78 -257 79 -107 1 -169 -21 -242 -87 -48
-44 -54 -47 -40 -22 63 122 242 177 399 124z m2498 -39 c13 -8 13 -9 0 -14
-46 -14 -97 -32 -310 -111 -129 -47 -274 -102 -322 -121 -72 -29 -91 -33 -109
-24 -12 7 -17 15 -13 19 5 4 74 31 154 60 318 116 418 153 475 176 64 26 101
30 125 15z m-3405 -70 c144 -18 242 -47 360 -106 132 -66 249 -143 253 -166 5
-27 -14 -22 -71 21 -67 50 -182 112 -278 150 -124 49 -279 70 -623 87 -126 6
-138 8 -120 21 16 13 50 14 204 9 102 -3 226 -10 275 -16z m2103 -32 c19 -19
16 -262 -2 -277 -15 -13 -180 -41 -231 -40 -41 1 -25 5 80 19 131 18 135 22
135 123 0 89 -7 130 -21 121 -5 -3 -9 -22 -9 -43 0 -64 -23 -76 -149 -76 -93
0 -112 3 -156 25 -39 20 -51 31 -53 53 -3 21 -9 27 -27 27 -14 0 -25 -7 -28
-17 -3 -11 -5 -7 -6 10 -1 27 28 66 52 68 6 1 66 5 132 9 204 11 270 11 283
-2z m1356 -27 c-12 -10 -185 -71 -203 -71 -29 0 4 16 102 50 98 34 122 39 101
21z m-7069 -91 c20 -39 19 -47 -10 -75 -29 -30 -66 -32 -90 -5 -39 44 -9 110
51 110 27 0 36 -6 49 -30z m3401 10 c431 -32 614 -56 642 -84 14 -14 13 -15
-19 -10 -83 12 -560 55 -719 66 -175 11 -220 19 -220 38 0 13 4 13 316 -10z
m3801 -56 c-27 -14 -51 -23 -54 -20 -6 6 74 44 92 45 6 0 -12 -11 -38 -25z
m-960 -29 c2 -6 -32 -23 -74 -37 -160 -54 -565 -199 -763 -272 -112 -42 -209
-76 -216 -76 -16 0 -39 29 -30 37 4 4 143 53 309 109 282 96 630 218 687 243
30 12 82 10 87 -4z m860 -11 c-3 -4 -88 -38 -189 -76 -380 -145 -549 -205
-545 -195 2 6 79 38 173 72 93 34 252 94 354 133 171 65 223 82 207 66z m875
-5 c35 -19 58 -86 58 -174 0 -247 -143 -427 -395 -496 -139 -37 -165 -61 -209
-185 -32 -88 -85 -177 -115 -194 -12 -6 -21 -15 -21 -21 0 -6 6 -7 13 -2 6 4
4 -5 -6 -20 -11 -17 -13 -27 -6 -27 22 0 174 108 224 159 27 28 57 51 66 51 9
0 29 -10 44 -22 24 -18 27 -26 22 -60 -11 -85 -39 -104 -352 -243 -184 -83
-318 -161 -397 -234 -47 -42 -31 -6 27 62 81 97 164 167 265 227 89 52 90 54
73 74 -15 17 -15 19 -1 8 11 -9 18 -10 23 -2 19 30 -32 36 -115 13 -23 -6 -24
-6 -8 10 9 10 24 14 35 11 14 -5 15 -4 4 4 -11 8 -8 13 15 26 32 17 74 51 74
59 0 3 -26 -12 -57 -32 -82 -54 -178 -76 -303 -68 l-98 6 -13 -30 c-16 -40
-78 -80 -132 -86 -50 -6 -106 18 -147 62 l-25 27 -6 -29 c-6 -28 -6 -28 -27
17 -71 149 40 313 252 374 79 23 106 52 106 113 0 74 19 171 41 216 32 62 106
134 168 164 80 38 184 43 266 13 33 -12 92 -33 130 -47 209 -76 418 20 441
203 10 74 38 98 86 73z m-7816 -265 c-30 -65 -119 -161 -201 -217 -33 -23
-143 -83 -245 -134 -102 -51 -194 -103 -204 -116 l-19 -22 6 52 c15 135 145
302 332 427 69 46 78 50 127 46 35 -2 105 30 142 65 27 26 73 112 78 145 1 8
4 -31 5 -88 3 -93 1 -109 -21 -158z m644 195 c0 -37 -4 -58 -10 -54 -5 3 -10
31 -10 61 0 30 5 54 10 54 6 0 10 -27 10 -61z m2383 -16 c-7 -2 -19 -2 -25 0
-7 3 -2 5 12 5 14 0 19 -2 13 -5z m3107 -21 c0 -4 -33 -19 -72 -31 -40 -13
-90 -32 -110 -42 -37 -19 -101 -27 -82 -10 5 4 54 23 109 41 55 18 107 36 115
41 19 11 40 11 40 1z m-1435 -52 c-3 -5 -14 -10 -23 -10 -15 0 -15 2 -2 10 20
13 33 13 25 0z m-195 -49 c-8 -5 -73 -18 -145 -31 -71 -12 -224 -44 -339 -71
-115 -27 -211 -47 -214 -45 -10 11 375 104 543 130 174 28 175 28 155 17z
m1640 -85 c-22 -20 -374 -153 -720 -271 -85 -29 -197 -69 -248 -89 -101 -39
-125 -44 -102 -22 8 7 103 45 210 83 428 153 797 287 825 299 39 17 53 17 35
0z m-1184 -80 c10 -8 17 -16 14 -18 -3 -3 -97 -38 -210 -78 -608 -218 -1239
-480 -1408 -584 -50 -31 -94 -61 -96 -65 -3 -5 8 -11 24 -15 54 -10 32 -24
-22 -14 -29 5 -54 11 -56 12 -1 2 40 32 90 68 268 188 602 338 1338 598 91 33
194 70 230 84 78 30 72 29 96 12z m-5765 -117 c17 -33 -3 -69 -39 -69 -32 0
-52 16 -52 41 0 45 70 67 91 28z m7249 -24 c37 -13 37 -14 -35 -36 -52 -16
-143 -108 -178 -179 -30 -63 -46 -135 -49 -224 l-2 -61 -6 70 -6 70 -2 -90
c-3 -143 -39 -275 -73 -275 -7 0 -9 9 -5 23 19 60 18 110 -4 199 -21 81 -22
101 -13 164 24 169 136 312 268 345 43 10 66 9 105 -6z m-3075 -45 c-11 -5
-27 -9 -35 -9 -9 0 -8 4 5 9 11 5 27 9 35 9 9 0 8 -4 -5 -9z m4334 -96 c-34
-36 -78 -64 -100 -64 -7 0 15 18 48 39 33 21 64 44 67 50 4 6 10 11 14 11 3 0
-10 -16 -29 -36z m-1709 6 c24 -24 25 -38 4 -68 -17 -24 -53 -29 -72 -10 -20
20 -14 65 10 82 29 20 34 20 58 -4z m-1990 -24 c0 -2 -21 -11 -47 -21 -100
-38 -511 -227 -568 -262 -33 -20 -76 -45 -95 -56 l-35 -20 27 26 c15 15 45 36
67 48 23 12 44 25 47 30 3 5 10 7 15 4 5 -4 9 -1 9 5 0 15 -83 -5 -140 -35
-14 -7 -45 -16 -69 -20 -25 -4 -69 -16 -97 -25 -35 -12 -62 -16 -81 -11 l-28
8 38 18 c24 11 34 21 27 25 -16 10 93 46 195 64 11 3 61 20 110 39 50 19 140
48 200 66 61 18 160 47 220 66 181 54 205 61 205 51z m1023 -27 c-10 -10 -106
-46 -353 -133 -189 -67 -416 -154 -948 -362 -153 -60 -250 -88 -152 -43 170
77 806 323 1215 469 105 37 201 72 215 78 28 11 39 7 23 -9z m2526 -48 c34
-34 5 -85 -45 -79 -41 5 -51 42 -19 74 29 29 39 30 64 5z m-1609 -91 c11 -7
12 -13 5 -23 -49 -68 -49 -69 -56 -191 -4 -71 -14 -141 -24 -169 -21 -59 -102
-149 -158 -175 -48 -23 -147 -39 -147 -24 0 5 24 27 53 49 101 77 137 158 137
308 0 82 3 99 28 145 38 73 114 111 162 80z m-6212 -55 c-22 -44 -48 -60 -48
-29 0 14 51 74 64 74 3 0 -4 -20 -16 -45z m-47 -106 c11 -5 17 -13 15 -18 -3
-4 -7 -38 -10 -76 -3 -37 -9 -71 -15 -74 -5 -4 -9 -13 -8 -21 1 -8 -3 -57 -7
-107 -9 -100 -18 -111 -57 -72 -18 18 -20 28 -14 72 15 126 58 307 71 307 3 0
14 -5 25 -11z m536 -131 c-4 -79 -12 -253 -17 -387 -6 -134 -12 -247 -15 -251
-9 -15 -301 73 -429 129 -27 12 -55 20 -62 17 -16 -6 -21 9 -30 93 -7 78 9
103 19 29 9 -65 41 -85 258 -161 222 -78 229 -78 229 6 0 147 23 622 30 643
19 49 23 20 17 -118z m343 108 c157 -16 415 -43 905 -96 149 -17 287 -35 308
-40 60 -17 70 -43 75 -190 5 -132 -3 -217 -18 -190 -4 8 -10 72 -13 142 -6
145 -19 182 -77 210 -35 17 -192 38 -430 58 -69 6 -192 19 -275 30 -82 10
-265 31 -405 45 -140 14 -267 28 -281 31 -38 7 -74 -10 -87 -43 -6 -15 -16
-89 -21 -163 l-10 -135 4 150 c3 83 8 166 11 184 l7 34 76 -6 c42 -4 146 -13
231 -21z m-610 -16 c74 -11 141 -20 148 -20 6 0 12 -11 12 -25 0 -14 -3 -25
-6 -25 -3 0 -75 12 -161 26 -100 17 -158 23 -165 16 -6 -6 6 -11 34 -16 188
-27 298 -51 298 -63 0 -17 0 -17 -138 7 -65 11 -137 21 -162 22 l-45 3 -16
-80 c-9 -44 -19 -124 -23 -178 l-7 -97 28 -28 c28 -29 106 -60 266 -107 77
-23 111 -45 95 -60 -6 -7 -197 51 -288 87 -100 39 -122 62 -128 131 -4 56 12
232 28 297 4 19 11 56 15 83 6 46 7 47 43 47 20 0 98 -9 172 -20z m682 -45
c291 -35 382 -46 816 -95 262 -30 289 -37 313 -82 14 -25 27 -665 15 -712 -3
-14 -17 -33 -30 -41 -21 -14 -40 -14 -187 0 -409 38 -712 80 -1010 140 -218
44 -238 51 -250 82 -5 13 -9 178 -9 368 l0 344 22 15 c12 9 26 16 30 16 4 0
134 -16 290 -35z m-1244 -38 c31 -15 52 -57 52 -101 0 -71 -38 -110 -105 -110
-93 0 -144 92 -95 172 34 55 87 69 148 39z m3435 -8 c-7 -7 -59 -8 -169 -1
l-159 9 170 2 c119 1 166 -2 158 -10z m312 1 c-3 -5 -23 -10 -43 -10 -28 0
-33 3 -22 10 20 13 73 13 65 0z m-252 -7 c-7 -2 -21 -2 -30 0 -10 3 -4 5 12 5
17 0 24 -2 18 -5z m124 1 c-3 -3 -12 -4 -19 -1 -8 3 -5 6 6 6 11 1 17 -2 13
-5z m-3027 -57 l125 -22 3 -150 c1 -82 0 -160 -3 -171 l-5 -22 -97 30 c-54 16
-128 39 -165 50 -63 19 -68 23 -68 49 0 36 20 230 25 247 6 17 39 15 185 -11z
m2986 7 l122 -6 -16 -28 c-13 -22 -20 -26 -37 -20 -24 10 -520 30 -727 30 -82
0 -148 4 -148 8 0 32 24 34 355 28 182 -4 385 -9 451 -12z m1497 -8 c119 -49
198 -128 261 -261 37 -76 76 -230 76 -291 -1 -29 -9 -9 -30 76 -37 144 -83
237 -156 318 -81 90 -118 107 -229 107 -85 0 -95 -2 -177 -41 -84 -41 -86 -41
-92 -20 -11 39 -6 51 28 74 96 66 217 80 319 38z m-1162 -21 c62 -33 84 -99
124 -385 28 -200 45 -492 27 -475 -5 6 -15 87 -21 180 -10 159 -58 480 -82
552 -15 46 -58 73 -136 85 -79 12 -89 18 -73 48 11 21 17 22 71 16 33 -3 73
-13 90 -21z m4213 -40 c48 -20 96 -79 96 -117 0 -57 -43 -82 -103 -59 -26 10
-76 3 -59 -8 6 -3 -33 -6 -86 -6 -93 0 -170 -18 -209 -48 -9 -6 -13 -6 -13 1
0 6 9 14 20 17 11 3 20 11 20 17 0 5 7 8 15 4 8 -3 15 -1 15 4 0 13 67 33 140
40 l65 7 -56 2 c-101 2 -222 -47 -345 -140 -85 -64 -188 -163 -216 -207 -35
-56 -30 -29 11 67 79 182 187 303 342 386 113 59 274 77 363 40z m-4694 -56
c129 -6 238 -14 242 -17 9 -9 42 -420 42 -532 l1 -85 -285 2 c-157 2 -361 7
-454 12 -222 12 -211 1 -211 199 1 210 12 315 37 348 l21 26 261 -7 c288 -7
509 -20 544 -31 16 -5 22 -2 22 9 0 9 -8 18 -17 21 -27 8 -342 25 -598 32
-296 8 -274 23 -295 -211 -6 -60 -10 -168 -10 -238 0 -127 0 -129 28 -156 32
-33 44 -34 387 -52 361 -19 387 -26 100 -27 -298 -2 -476 10 -511 33 -13 8
-27 29 -31 45 -10 39 3 461 16 535 11 60 30 90 66 106 21 10 266 5 645 -12z
m416 -34 c0 -5 10 -30 22 -55 19 -40 22 -63 22 -198 0 -140 -2 -154 -20 -169
-25 -21 -25 -39 -2 -52 16 -9 16 -10 -1 -16 -9 -4 -37 -4 -61 -1 l-43 7 -6 62
c-4 34 -10 148 -13 252 l-7 191 54 -6 c30 -3 54 -9 55 -15z m3209 -20 c76 -37
149 -110 183 -183 23 -49 27 -70 27 -147 0 -80 -4 -97 -31 -155 -38 -80 -101
-145 -174 -179 -77 -36 -226 -43 -294 -12 -40 17 -46 24 -46 49 0 45 16 52
126 50 117 -3 157 13 222 87 51 58 66 102 59 170 -7 67 -35 122 -87 169 -49
44 -59 42 -31 -5 31 -50 28 -113 -5 -144 -22 -20 -38 -25 -79 -25 l-53 0 9
-42 c6 -23 8 -47 5 -53 -2 -6 -44 -26 -93 -43 -178 -64 -248 -153 -313 -397
-61 -227 -147 -362 -277 -437 -73 -42 -19 -36 64 7 93 49 173 130 240 245 68
116 120 172 187 201 47 20 59 21 156 13 174 -14 259 -10 315 15 72 32 109 64
161 139 95 136 156 182 239 182 80 0 137 -45 150 -119 8 -48 -9 -90 -63 -155
-22 -27 -51 -76 -63 -108 -47 -127 -161 -261 -296 -351 -97 -64 -134 -78 -178
-66 -24 7 -35 16 -35 28 0 11 -12 24 -30 31 -28 12 -29 14 -13 26 15 11 1 13
-101 14 -66 0 -117 2 -115 4 2 3 56 6 119 7 63 2 131 6 150 11 73 17 112 30
107 34 -2 2 -17 -1 -33 -7 -16 -7 -111 -15 -214 -18 -215 -8 -226 -11 -322
-103 -35 -32 -52 -52 -38 -44 25 15 25 15 28 -27 2 -33 -3 -48 -20 -67 -18
-19 -19 -23 -4 -17 10 4 24 7 32 7 8 0 14 7 14 15 0 8 5 15 10 15 16 0 12 -9
-37 -84 -112 -168 -312 -322 -487 -375 -123 -38 -265 -20 -295 37 -14 26 -14
129 -1 137 6 3 10 11 10 16 0 6 -28 -9 -62 -34 -290 -205 -768 -364 -1238
-414 l-75 -8 50 -5 c28 -3 75 0 105 6 116 25 123 25 111 10 -7 -8 -40 -17 -74
-21 -34 -4 -73 -15 -86 -24 -18 -11 -68 -19 -180 -27 l-156 -11 125 -1 c69 0
148 3 176 7 29 4 60 4 70 0 18 -7 18 -8 -1 -9 -11 0 -87 -5 -170 -10 -154 -9
-426 0 -578 21 -111 14 -418 76 -453 90 -16 7 -33 11 -37 10 -5 -1 -6 3 -3 8
4 5 -10 16 -30 23 l-37 13 28 5 c24 4 12 11 -71 38 -54 19 -130 49 -169 67
-38 18 -86 38 -105 46 -44 16 -88 39 -77 39 4 0 105 -34 224 -75 119 -42 221
-74 227 -72 5 2 -20 15 -56 30 -96 38 -399 180 -394 184 2 2 93 -26 202 -62
346 -115 445 -135 680 -141 99 -3 194 -9 210 -14 21 -7 -7 -9 -96 -6 -91 2
-111 1 -75 -5 96 -17 458 -22 606 -10 250 22 555 85 679 140 24 11 24 11 -5 5
-31 -7 -56 -7 -115 -4 l-35 2 54 24 c90 41 50 47 -95 15 -233 -54 -339 -66
-579 -66 -195 0 -238 3 -373 27 -160 29 -237 46 -230 53 2 3 31 0 64 -5 102
-17 399 -31 425 -21 l24 10 -25 1 c-22 1 -23 2 -5 9 16 7 14 9 -14 14 -19 4
-49 7 -67 7 -18 0 -80 6 -136 13 l-103 12 225 6 c338 10 489 43 710 154 211
106 301 196 421 421 84 157 171 226 308 245 79 11 108 30 139 89 19 38 22 60
22 152 0 125 23 204 86 296 94 136 292 222 415 180 39 -13 89 -45 89 -57 0 -5
-34 -11 -75 -13 -137 -9 -263 -97 -323 -226 -26 -56 -27 -61 -27 -252 0 -194
0 -195 -28 -252 -50 -102 -133 -152 -288 -172 -68 -9 -105 -18 -119 -31 -11
-10 -50 -60 -86 -112 -114 -160 -247 -270 -405 -335 -43 -17 -77 -33 -75 -35
5 -5 148 47 164 59 6 6 12 7 12 4 0 -4 9 2 21 13 22 20 63 36 53 20 -11 -18
19 -8 129 43 336 157 529 290 634 436 84 118 96 159 97 342 1 152 2 156 31
209 38 68 102 125 174 152 46 17 69 20 124 15 116 -11 163 26 186 143 16 80
41 130 93 187 82 89 172 125 304 121 76 -2 100 -7 149 -32z m-7179 -120 c-31
-45 -40 -112 -26 -180 12 -58 30 -74 30 -27 0 38 49 105 93 125 41 20 68 21
122 5 l40 -11 -39 -10 c-53 -13 -109 -71 -125 -130 -32 -113 32 -343 131 -467
46 -58 36 -56 -58 13 -98 72 -185 202 -242 362 -18 53 -25 97 -29 180 -4 98
-2 113 16 143 18 28 26 32 66 32 l44 0 -23 -35z m7779 -75 c-3 -5 -16 -15 -28
-21 -19 -9 -19 -8 3 10 28 23 34 26 25 11z m-2769 -176 c151 -72 238 -315 214
-602 -5 -65 -18 -147 -29 -184 -44 -154 -159 -310 -247 -336 -132 -38 -238 18
-314 169 -60 118 -84 268 -69 428 12 131 31 201 86 311 53 108 145 211 204
229 43 13 110 6 155 -15z m-4630 -33 c98 -39 266 -93 397 -128 38 -10 68 -22
68 -27 0 -4 -28 -25 -63 -45 l-63 -36 -3 -113 c-2 -102 -4 -112 -22 -112 -34
0 -392 122 -410 140 -12 12 -20 42 -25 88 -5 51 -14 80 -31 103 -34 46 -33
104 3 141 15 15 32 28 39 28 6 0 56 -18 110 -39z m3643 -150 c9 -6 10 -11 2
-15 -6 -4 -8 -30 -4 -71 7 -76 -4 -95 -54 -95 -66 0 -73 11 -73 105 l0 85 58
0 c31 0 63 -4 71 -9z m-2938 -61 c446 -97 757 -141 1306 -186 l83 -7 -47 -41
c-77 -68 -64 -65 -218 -50 -77 7 -171 16 -210 18 -124 9 1 -11 185 -29 91 -9
168 -20 171 -23 4 -4 9 -55 11 -114 l5 -108 -32 0 c-95 0 -496 51 -790 101
-314 53 -694 134 -711 152 -6 7 -14 63 -18 124 l-6 113 37 23 c44 28 89 45
119 46 11 1 63 -8 115 -19z m3314 -145 c45 -44 35 -57 -77 -103 -134 -54 -263
-98 -363 -122 -66 -17 -116 -20 -295 -20 -243 0 -651 15 -940 35 -107 7 -199
9 -204 5 -4 -5 -5 -40 -1 -79 l7 -70 41 -5 c247 -33 1218 -82 1362 -70 l40 3
-35 -10 c-61 -17 -396 -22 -675 -10 -334 15 -745 47 -758 60 -12 12 -22 198
-14 233 4 14 31 40 72 66 l66 44 172 -11 c244 -15 905 -33 1080 -29 81 1 147
0 147 -3 0 -4 -15 -14 -32 -23 -32 -15 -33 -16 -7 -16 37 0 103 25 163 62 43
26 193 86 219 88 4 0 19 -11 32 -25z m-3805 -189 c258 -84 776 -201 1245 -280
104 -18 660 -80 845 -95 279 -23 593 -35 915 -35 331 -1 343 0 455 25 63 15
123 30 132 34 15 6 15 -2 -7 -65 -38 -111 -58 -137 -118 -155 -216 -65 -1245
-25 -1967 76 -620 86 -1405 267 -1522 351 -17 11 -36 35 -43 52 -17 42 -29
116 -18 116 5 0 42 -11 83 -24z m-290 -126 c12 -12 20 -33 20 -55 0 -45 -29
-75 -73 -75 -69 0 -96 81 -43 127 33 28 69 30 96 3z m6600 -120 c-34 -11 -60
-11 -35 0 11 5 29 8 40 8 16 0 15 -2 -5 -8z m-6360 -48 c25 -20 20 -42 -9 -42
-24 0 -45 25 -37 45 7 20 19 19 46 -3z m1784 -613 c-6 -11 -24 -2 -24 11 0 5
7 7 15 4 8 -4 12 -10 9 -15z m60 -30 c-2 -4 2 -9 8 -12 7 -2 11 -7 8 -10 -3
-3 -15 3 -28 13 -21 17 -21 19 -3 17 11 0 18 -4 15 -8z m1713 5 c-3 -3 -12 -4
-19 -1 -8 3 -5 6 6 6 11 1 17 -2 13 -5z m163 -24 l45 -7 -50 -1 c-27 0 -72 6
-100 14 l-50 13 55 -6 c30 -3 75 -9 100 -13z m-1806 -15 c3 -8 17 -15 31 -15
15 0 23 -4 20 -10 -3 -5 0 -7 8 -5 7 3 101 -35 208 -84 531 -245 979 -390
1374 -445 278 -39 673 -40 830 -1 71 17 93 19 79 6 -13 -13 -308 -97 -429
-122 -88 -18 -125 -20 -300 -16 -215 5 -293 18 -511 86 -54 17 -100 29 -102
27 -2 -3 7 -7 19 -11 12 -4 38 -14 58 -23 20 -9 42 -15 49 -13 6 1 12 -3 12
-9 0 -5 3 -9 8 -9 4 1 18 1 32 0 20 -1 22 -3 10 -11 -13 -8 -12 -10 4 -10 11
0 17 -3 14 -6 -8 -7 -204 51 -412 122 -87 30 -160 54 -163 54 -2 0 -1 4 2 10
3 5 0 7 -8 5 -17 -7 -100 29 -90 39 4 4 0 4 -8 1 -9 -3 -48 6 -88 20 -87 32
-311 135 -293 135 7 0 32 -9 55 -21 23 -11 49 -22 58 -24 9 -2 43 -15 74 -30
31 -14 62 -27 69 -28 6 -1 14 -6 17 -10 4 -5 15 -7 25 -5 16 4 14 7 -11 17
-16 7 -43 19 -59 27 -16 8 -35 14 -43 14 -7 0 -13 4 -13 9 0 5 -10 13 -22 16
-41 12 -78 30 -78 37 0 11 3 10 55 -12 97 -41 53 -16 -160 93 -280 144 -371
197 -353 208 19 12 25 11 32 -6z m3116 -89 c0 -3 -13 -11 -30 -20 -16 -8 -30
-11 -30 -6 0 7 23 18 58 29 1 1 2 -1 2 -3z m-153 -82 c-3 -3 -12 -4 -19 -1 -8
3 -5 6 6 6 11 1 17 -2 13 -5z m-3223 -19 c11 -8 16 -15 10 -15 -5 0 -18 7 -28
15 -11 8 -16 15 -10 15 5 0 18 -7 28 -15z m501 -253 c206 -93 446 -187 765
-301 259 -92 758 -223 855 -224 117 -1 716 192 1080 348 35 15 38 15 26 1 -7
-9 -20 -16 -27 -16 -8 0 -14 -3 -14 -7 -1 -5 -2 -36 -4 -70 -1 -38 2 -64 8
-66 14 -5 -267 -114 -468 -183 -208 -71 -375 -120 -502 -149 l-103 -23 -123
25 c-161 33 -601 159 -803 230 -231 81 -457 170 -640 253 -209 94 -575 279
-575 291 0 5 11 4 25 -1 14 -5 26 -7 26 -5 10 36 21 55 33 55 22 0 15 37 -10
50 -13 8 -24 16 -24 20 0 3 80 -34 178 -84 97 -49 231 -114 297 -144z m95 208
c8 -5 11 -10 5 -10 -5 0 -17 5 -25 10 -8 5 -10 10 -5 10 6 0 17 -5 25 -10z
m66 -38 c-4 -3 -14 2 -24 12 -16 18 -16 18 6 6 13 -6 21 -14 18 -18z m1952 21
c-10 -2 -26 -2 -35 0 -10 3 -2 5 17 5 19 0 27 -2 18 -5z m442 3 c0 -2 -9 -6
-20 -9 -11 -3 -18 -1 -14 4 5 9 34 13 34 5z m-1886 -77 c5 -4 -8 -3 -30 2 -21
6 -41 13 -44 16 -9 9 65 -9 74 -18z m110 -25 c33 -9 93 -22 131 -29 39 -7 57
-13 40 -14 -33 -1 -185 31 -225 48 -38 15 -15 13 54 -5z m1163 10 c-3 -3 -12
-4 -19 -1 -8 3 -5 6 6 6 11 1 17 -2 13 -5z m-100 -20 c-3 -3 -12 -4 -19 -1 -8
3 -5 6 6 6 11 1 17 -2 13 -5z m-82 -14 c-27 -5 -75 -8 -105 -7 l-55 0 65 7
c36 4 83 7 105 7 37 0 37 0 -10 -7z m-676 -36 c10 -9 -76 -3 -89 7 -11 7 -1 8
35 3 28 -4 52 -8 54 -10z m378 0 c-3 -3 -12 -4 -19 -1 -8 3 -5 6 6 6 11 1 17
-2 13 -5z m441 -1 c-16 -2 -40 -2 -55 0 -16 2 -3 4 27 4 30 0 43 -2 28 -4z
m-765 -10 c-7 -2 -21 -2 -30 0 -10 3 -4 5 12 5 17 0 24 -2 18 -5z m630 0 c-29
-2 -78 -2 -110 0 -32 2 -8 3 52 3 61 0 87 -1 58 -3z m-560 -10 c-7 -2 -21 -2
-30 0 -10 3 -4 5 12 5 17 0 24 -2 18 -5z m190 -20 c-7 -2 -19 -2 -25 0 -7 3
-2 5 12 5 14 0 19 -2 13 -5z m-20 -80 c-7 -2 -19 -2 -25 0 -7 3 -2 5 12 5 14
0 19 -2 13 -5z m737 -107 c0 -2 -7 -7 -16 -10 -8 -3 -12 -2 -9 4 6 10 25 14
25 6z m-818 -59 c-15 -7 -26 -7 -33 0 -6 6 1 10 23 10 30 0 30 -1 10 -10z
m118 -28 c11 -7 4 -8 -25 -3 -50 8 -58 14 -19 14 16 0 36 -5 44 -11z"/>
<path d="M7650 9699 c-63 -38 -136 -119 -80 -89 15 8 20 8 21 -2 1 -7 4 -2 8
12 4 15 14 24 24 24 20 -2 23 12 5 19 -7 2 6 14 30 26 39 20 52 31 35 31 -5 0
-24 -10 -43 -21z"/>
<path d="M4710 8344 c0 -34 -69 -162 -115 -212 -49 -55 -162 -145 -250 -201
-56 -35 -45 -38 58 -15 148 33 257 109 305 213 25 55 40 159 28 205 -7 28 -26
36 -26 10z"/>
<path d="M4075 8091 c-80 -10 -28 -23 100 -26 75 -2 96 -1 65 4 -25 5 -39 9
-32 9 6 1 12 7 12 12 0 11 -61 11 -145 1z"/>
<path d="M6533 9062 c-7 -4 5 -7 25 -7 54 0 99 -23 123 -62 19 -30 21 -45 17
-113 -4 -66 -11 -92 -43 -157 -34 -68 -61 -101 -224 -268 -201 -204 -204 -211
-35 -63 240 209 298 286 329 435 23 109 1 181 -68 223 -32 20 -101 26 -124 12z"/>
<path d="M5955 8447 c-49 -28 -94 -90 -110 -154 l-13 -48 -14 33 -14 32 -62
-56 c-69 -62 -80 -94 -34 -94 25 0 30 -6 45 -52 9 -29 15 -53 13 -55 -2 -2
-24 5 -50 15 -31 12 -54 29 -67 51 l-19 32 -38 -30 c-83 -69 -92 -77 -92 -92
0 -27 20 -38 50 -27 24 8 40 4 97 -23 37 -18 81 -43 97 -56 l28 -24 42 35 c40
33 41 36 38 87 -2 30 -13 84 -26 122 -22 67 -22 68 -4 78 11 6 21 9 22 7 1 -2
13 -20 25 -41 40 -66 123 -87 188 -47 45 27 112 96 123 126 52 136 -95 255
-225 181z m99 -121 c55 -51 45 -96 -22 -96 -25 0 -43 9 -68 34 -39 39 -41 49
-14 76 29 29 64 25 104 -14z"/>
<path d="M5411 7962 c-60 -47 -112 -102 -106 -112 3 -6 21 -10 40 -10 28 0 41
-9 79 -52 25 -29 46 -56 46 -60 0 -17 -17 -7 -39 23 -50 67 -127 87 -199 50
-90 -46 -137 -164 -97 -242 68 -131 275 -60 310 106 l7 30 18 -25 18 -24 110
98 c61 53 113 103 116 111 3 8 -10 27 -30 45 -29 25 -39 29 -50 19 -8 -7 -12
-20 -9 -30 6 -19 -38 -68 -60 -68 -5 -1 -32 19 -59 42 -45 40 -48 45 -36 66
10 20 9 26 -6 41 -18 18 -20 17 -53 -8z m-127 -256 c18 -7 42 -26 54 -41 21
-26 21 -29 6 -47 -29 -32 -90 -19 -126 26 -22 27 -22 32 2 56 24 24 22 24 64
6z"/>
<path d="M7428 8763 c7 -3 16 -2 19 1 4 3 -2 6 -13 5 -11 0 -14 -3 -6 -6z"/>
<path d="M7390 8749 c0 -5 5 -7 10 -4 6 3 10 8 10 11 0 2 -4 4 -10 4 -5 0 -10
-5 -10 -11z"/>
<path d="M7620 8740 c0 -5 5 -10 10 -10 6 0 10 5 10 10 0 6 -4 10 -10 10 -5 0
-10 -4 -10 -10z"/>
<path d="M7557 8699 c-5 -17 -3 -18 11 -7 9 7 18 13 20 14 2 1 -4 4 -12 7 -8
3 -16 -2 -19 -14z"/>
<path d="M7415 8625 c-22 -19 -35 -34 -29 -35 6 0 18 7 25 17 8 9 28 24 44 35
17 10 23 18 15 18 -8 0 -33 -16 -55 -35z"/>
<path d="M7359 8563 c-13 -16 -12 -17 4 -4 9 7 17 15 17 17 0 8 -8 3 -21 -13z"/>
<path d="M7450 8375 c-7 -14 -17 -25 -21 -25 -4 0 -14 -6 -21 -13 -19 -19 -92
-53 -175 -80 -95 -32 -162 -82 -197 -147 -28 -51 -56 -138 -56 -174 0 -17 3
-16 33 8 83 68 138 106 202 141 166 91 227 152 269 273 14 39 14 42 -3 42 -10
0 -24 -11 -31 -25z"/>
<path d="M6850 8349 c0 -5 5 -7 10 -4 6 3 10 8 10 11 0 2 -4 4 -10 4 -5 0 -10
-5 -10 -11z"/>
<path d="M8820 8019 c-68 -119 -229 -223 -363 -236 -55 -5 -67 -9 -65 -22 5
-23 132 -27 205 -6 59 17 133 59 133 75 0 6 6 10 13 11 23 1 87 90 103 145 26
89 14 103 -26 33z"/>
<path d="M4224 6744 c-69 -64 -127 -114 -129 -112 -4 4 80 132 125 191 12 15
19 27 15 27 -14 0 -211 -169 -277 -236 -88 -90 -279 -356 -266 -370 9 -8 76
50 213 184 102 100 164 153 229 192 48 30 106 74 127 99 40 45 103 141 93 141
-3 0 -61 -52 -130 -116z"/>
<path d="M1693 6025 c0 -27 2 -38 4 -22 2 15 2 37 0 50 -2 12 -4 0 -4 -28z"/>
<path d="M1703 5840 c0 -25 2 -35 4 -22 2 12 2 32 0 45 -2 12 -4 2 -4 -23z"/>
<path d="M1863 5240 c0 -36 2 -50 4 -32 2 17 2 47 0 65 -2 17 -4 3 -4 -33z"/>
<path d="M5539 7459 c-41 -39 -45 -44 -14 -21 39 29 83 72 73 72 -2 0 -29 -23
-59 -51z"/>
<path d="M8034 8454 c-9 -25 -31 -64 -47 -87 -17 -23 -22 -34 -11 -25 10 9 37
46 59 82 l40 66 47 0 c43 0 47 -2 50 -27 3 -27 4 -27 9 5 l6 32 -68 0 -67 0
-18 -46z"/>
<path d="M7913 8194 c-62 -7 -126 -20 -143 -29 -37 -19 -38 -24 -5 -17 14 2
25 8 25 12 0 4 27 10 60 14 33 3 87 9 120 12 33 4 63 11 66 15 3 5 2 9 -3 8
-4 -1 -59 -7 -120 -15z"/>
<path d="M7855 8130 c-3 -5 -12 -7 -20 -4 -7 3 -40 0 -72 -7 -32 -7 -63 -12
-68 -11 -13 2 -310 -157 -363 -194 -50 -35 -42 -32 145 60 89 44 159 84 156
89 -3 6 -1 7 4 4 14 -9 73 12 73 25 0 5 4 7 9 4 5 -3 28 1 51 9 23 8 50 15 59
15 20 -1 -25 -23 -146 -74 -50 -21 -100 -46 -111 -56 -11 -11 -22 -17 -24 -14
-3 2 -22 -12 -44 -31 l-39 -35 40 18 c32 13 311 157 395 203 11 6 8 8 -12 9
-15 0 -29 -4 -33 -10z"/>
<path d="M8410 8404 c-6 -14 -15 -35 -20 -47 -9 -20 -9 -20 2 -3 47 68 47 68
114 64 35 -2 64 0 64 5 0 4 -34 7 -75 7 -72 0 -76 -1 -85 -26z"/>
<path d="M8048 8058 c-99 -53 -132 -80 -40 -34 27 14 52 22 56 19 3 -4 6 -1 6
5 0 7 5 12 11 12 5 0 8 -4 5 -9 -4 -5 3 -7 15 -4 15 4 17 8 8 14 -16 10 -8 20
18 22 11 0 20 7 20 14 0 7 -1 13 -1 13 -1 -1 -45 -24 -98 -52z"/>
<path d="M8160 8080 c0 -5 7 -7 15 -4 8 4 15 8 15 10 0 2 -7 4 -15 4 -8 0 -15
-4 -15 -10z"/>
<path d="M8162 8038 c-83 -21 -96 -28 -51 -28 43 -1 89 9 127 29 46 25 29 25
-76 -1z"/>
<path d="M7910 7985 c-14 -8 -20 -14 -14 -15 5 0 19 7 30 15 24 18 16 19 -16
0z"/>
<path d="M3198 7771 c-164 -47 -225 -68 -217 -76 3 -2 89 18 194 45 104 27
191 47 194 45 12 -13 -29 -27 -219 -75 -211 -52 -286 -80 -745 -273 -110 -46
-215 -91 -232 -101 -18 -9 -108 -45 -200 -80 -153 -59 -505 -202 -627 -255
-27 -12 -47 -23 -44 -26 2 -2 60 9 128 24 172 40 720 156 1345 286 143 30 345
72 449 95 104 23 202 42 217 43 16 1 29 8 29 15 0 24 -93 382 -99 381 -3 -1
-81 -22 -173 -48z m192 -45 c0 -7 -10 -16 -22 -19 -13 -3 -131 -33 -262 -66
-238 -62 -324 -75 -191 -31 62 21 448 128 468 129 4 1 7 -5 7 -13z m17 -71 c2
-6 -51 -23 -119 -38 -175 -40 -576 -136 -619 -147 -20 -6 -47 -10 -60 -9 l-24
0 25 11 c37 15 763 197 779 195 8 -1 16 -7 18 -12z m20 -71 c5 -14 -200 -63
-920 -220 -115 -25 -214 -43 -220 -41 -15 5 181 58 378 102 88 19 291 66 450
104 160 38 294 68 299 67 6 -1 11 -7 13 -12z m20 -89 c2 -7 -106 -34 -264 -69
-833 -180 -1304 -278 -1310 -273 -5 6 162 54 282 81 61 13 196 43 300 65 105
23 361 79 570 126 209 46 389 83 399 82 11 -1 21 -7 23 -12z"/>
<path d="M3123 6060 c0 -36 2 -50 4 -32 2 17 2 47 0 65 -2 17 -4 3 -4 -33z"/>
<path d="M4373 5273 c15 -2 37 -2 50 0 12 2 0 4 -28 4 -27 0 -38 -2 -22 -4z"/>
<path d="M2881 4749 c-24 -11 -42 -22 -39 -24 3 -3 18 1 34 8 16 8 40 19 54
25 14 6 18 11 10 11 -8 0 -35 -9 -59 -20z"/>
<path d="M2645 4654 c-222 -89 -238 -96 -243 -111 -7 -25 42 -13 169 42 70 30
131 55 136 55 6 0 74 43 122 77 2 2 2 4 0 6 -2 2 -85 -29 -184 -69z"/>
<path d="M9100 6290 c-8 -5 -10 -10 -5 -10 6 0 17 5 25 10 8 5 11 10 5 10 -5
0 -17 -5 -25 -10z"/>
<path d="M5639 6243 c-13 -16 -12 -17 4 -4 16 13 21 21 13 21 -2 0 -10 -8 -17
-17z"/>
<path d="M5546 6083 c-6 -14 -5 -15 5 -6 7 7 10 15 7 18 -3 3 -9 -2 -12 -12z"/>
<path d="M5126 5643 c-6 -14 -5 -15 5 -6 7 7 10 15 7 18 -3 3 -9 -2 -12 -12z"/>
<path d="M1840 4215 c-9 -11 -11 -91 -9 -335 4 -268 7 -322 19 -335 10 -9 107
-32 254 -60 448 -85 1075 -157 1130 -130 21 11 21 13 18 335 -2 179 -6 333 -9
343 -9 33 -58 46 -264 67 -112 11 -256 27 -319 36 -63 8 -241 28 -395 44 -154
17 -307 34 -340 40 -75 12 -70 13 -85 -5z m559 -151 c191 -20 353 -39 361 -42
37 -15 -106 -11 -278 8 -274 30 -595 70 -612 76 -11 4 -12 7 -2 13 7 4 52 2
99 -5 48 -7 242 -29 432 -50z m545 -13 c3 -4 -14 -16 -37 -27 -23 -10 -100
-49 -171 -87 -102 -56 -130 -67 -137 -56 -13 21 -12 24 24 40 17 8 86 43 151
77 113 59 158 73 170 53z m186 -11 c11 -7 9 -11 -13 -19 -16 -6 -30 -11 -31
-11 -2 0 -103 -52 -226 -115 -122 -63 -224 -115 -226 -115 -2 0 -4 7 -4 15 0
19 26 35 260 157 184 96 211 106 240 88z m-1055 -24 c105 -13 219 -27 253 -31
44 -5 61 -10 53 -18 -10 -10 -164 2 -276 23 -27 4 -94 14 -147 21 -54 6 -98
15 -98 20 0 12 -1 12 215 -15z m43 -94 c112 -16 192 -31 190 -37 -4 -12 12
-14 -240 21 -115 15 -208 32 -208 36 0 13 51 9 258 -20z m407 12 c28 -19 85
-106 85 -132 0 -41 -25 -99 -55 -129 -73 -73 -183 -19 -221 108 -10 31 -8 44
6 76 36 82 123 118 185 77z m-416 -99 c101 -14 186 -25 190 -25 3 0 -2 -5 -11
-11 -20 -11 -428 39 -428 53 0 13 54 9 249 -17z m-89 -75 c151 -17 167 -20
148 -31 -14 -8 -212 10 -286 27 -32 7 -16 26 16 20 15 -3 70 -10 122 -16z
m290 -7 c0 -19 -5 -22 -248 -150 -117 -62 -147 -74 -165 -66 -18 8 8 25 189
120 115 61 212 111 217 112 4 0 7 -7 7 -16z m65 -82 c-6 -6 -62 -37 -126 -70
-107 -56 -159 -73 -159 -53 0 15 275 151 284 142 6 -6 6 -13 1 -19z m-371 2
c45 -8 10 -24 -39 -18 -75 11 -95 17 -95 27 0 9 60 6 134 -9z m359 -120 c-7
-2 -19 -2 -25 0 -7 3 -2 5 12 5 14 0 19 -2 13 -5z m100 -10 c-7 -2 -21 -2 -30
0 -10 3 -4 5 12 5 17 0 24 -2 18 -5z m70 -10 c-7 -2 -21 -2 -30 0 -10 3 -4 5
12 5 17 0 24 -2 18 -5z m95 -10 c-10 -2 -26 -2 -35 0 -10 3 -2 5 17 5 19 0 27
-2 18 -5z m85 -10 c-7 -2 -21 -2 -30 0 -10 3 -4 5 12 5 17 0 24 -2 18 -5z m85
-10 c-10 -2 -26 -2 -35 0 -10 3 -2 5 17 5 19 0 27 -2 18 -5z m175 -20 c-7 -2
-19 -2 -25 0 -7 3 -2 5 12 5 14 0 19 -2 13 -5z"/>
<path d="M2388 3881 l-32 -29 97 -7 c54 -4 101 -4 105 0 4 3 -8 20 -26 36 -45
40 -99 40 -144 0z"/>
<path d="M2341 3814 c0 -11 3 -14 6 -6 3 7 2 16 -1 19 -3 4 -6 -2 -5 -13z"/>
<path d="M2351 3768 c-1 -10 5 -18 12 -18 6 0 25 -14 41 -31 38 -40 68 -51
104 -38 30 10 76 62 65 73 -4 3 -52 6 -109 6 -72 0 -104 4 -107 13 -3 7 -6 5
-6 -5z"/>
<path d="M8938 3913 c6 -2 18 -2 25 0 6 3 1 5 -13 5 -14 0 -19 -2 -12 -5z"/>
<path d="M3730 3926 c-16 -20 -27 -113 -35 -293 -9 -197 -17 -188 171 -196
320 -15 711 -20 718 -9 3 6 -5 113 -19 239 -19 170 -29 231 -41 239 -9 8 -99
14 -252 18 -130 3 -303 8 -383 11 -119 4 -149 2 -159 -9z m780 -73 c0 -5 7
-71 15 -148 8 -77 15 -155 15 -174 l0 -34 -292 6 c-161 4 -327 10 -369 13
l-76 7 33 99 c53 160 90 210 165 228 43 10 509 12 509 3z"/>
<path d="M7471 2497 c-13 -21 -12 -21 5 -5 10 10 16 20 13 22 -3 3 -11 -5 -18
-17z"/>
<path d="M5263 1843 c15 -2 39 -2 55 0 15 2 2 4 -28 4 -30 0 -43 -2 -27 -4z"/>
<path d="M5620 3533 c-93 -47 -178 -184 -222 -355 -17 -70 -20 -102 -15 -213
6 -153 27 -233 84 -315 153 -219 394 -111 489 220 14 49 19 98 19 200 0 121
-3 144 -28 220 -52 159 -137 250 -239 257 -37 3 -64 -2 -88 -14z m132 -84 c21
-9 62 -78 53 -87 -2 -2 -13 1 -24 8 -32 16 -26 4 24 -53 64 -73 80 -128 79
-262 0 -90 -4 -121 -23 -168 -75 -191 -226 -246 -320 -117 -15 22 -34 54 -42
72 l-14 33 -5 -55 -5 -55 -23 69 c-27 84 -31 249 -7 340 31 119 97 223 170
268 33 20 101 24 137 7z"/>
<path d="M5632 3258 c-50 -36 -83 -112 -89 -210 -8 -124 28 -220 88 -242 76
-26 152 29 184 135 37 119 20 244 -41 304 -42 43 -92 47 -142 13z"/>
<path d="M1064 3354 c10 -71 15 -83 38 -95 23 -13 280 -103 321 -113 l28 -7
-3 72 -3 72 -75 19 c-64 17 -256 78 -299 95 -11 4 -12 -4 -7 -43z"/>
<path d="M1630 3213 c0 -10 3 -41 6 -70 l7 -52 76 -20 c245 -66 968 -188 1276
-216 39 -3 80 -8 93 -11 21 -4 22 -2 22 68 0 40 -4 78 -8 84 -4 6 -70 16 -147
23 -369 32 -726 86 -1081 162 -128 27 -235 49 -238 49 -3 0 -6 -8 -6 -17z"/>
<path d="M2048 3183 c7 -3 16 -2 19 1 4 3 -2 6 -13 5 -11 0 -14 -3 -6 -6z"/>
<path d="M2093 3173 c9 -2 23 -2 30 0 6 3 -1 5 -18 5 -16 0 -22 -2 -12 -5z"/>
<path d="M2141 3166 c7 -8 491 -76 529 -75 19 1 -28 9 -105 20 -77 10 -197 28
-268 39 -128 20 -164 24 -156 16z"/>
<path d="M5095 3149 c-134 -53 -260 -93 -360 -114 -95 -20 -103 -23 -61 -24
26 -1 76 6 110 14 92 23 396 128 396 137 0 13 -32 8 -85 -13z"/>
<path d="M4875 2624 c-152 -42 -245 -48 -685 -47 -234 0 -420 -1 -414 -3 7 -3
9 -14 7 -26 -4 -11 0 -24 8 -29 11 -7 11 -9 1 -9 -7 0 -10 -4 -7 -10 4 -6 -11
-11 -37 -11 -145 -5 313 -37 642 -46 254 -6 426 6 468 33 22 15 82 125 82 152
0 14 -1 14 -65 -4z"/>
<path d="M3890 1670 c8 -5 20 -10 25 -10 6 0 3 5 -5 10 -8 5 -19 10 -25 10 -5
0 -3 -5 5 -10z"/>
<path d="M3960 1645 c0 -8 73 -36 78 -30 3 3 3 5 0 5 -3 0 -22 7 -42 15 -20 8
-36 13 -36 10z"/>
<path d="M3915 1630 c3 -5 16 -10 28 -9 21 0 21 1 2 9 -28 12 -37 12 -30 0z"/>
<path d="M6115 1260 c-8 -13 5 -13 25 0 13 8 13 10 -2 10 -9 0 -20 -4 -23 -10z"/>
</g>
</svg>
